<svg xmlns="http://www.w3.org/2000/svg" xmlns:xlink="http://www.w3.org/1999/xlink" width="586.243" height="490.534" viewBox="0 0 586.243 490.534">
  <defs>
    <clipPath id="clip-path">
      <rect id="Rectangle_96" data-name="Rectangle 96" width="586.243" height="490.534" fill="none"/>
    </clipPath>
    <clipPath id="clip-path-4">
      <rect id="Rectangle_63" data-name="Rectangle 63" width="44.397" height="52.276" fill="none"/>
    </clipPath>
    <clipPath id="clip-path-5">
      <rect id="Rectangle_64" data-name="Rectangle 64" width="25.295" height="29.36" fill="none"/>
    </clipPath>
    <clipPath id="clip-path-6">
      <rect id="Rectangle_65" data-name="Rectangle 65" width="15.311" height="18.904" fill="none"/>
    </clipPath>
    <clipPath id="clip-path-7">
      <rect id="Rectangle_66" data-name="Rectangle 66" width="13.413" height="14.851" fill="none"/>
    </clipPath>
    <clipPath id="clip-path-8">
      <rect id="Rectangle_67" data-name="Rectangle 67" width="81.966" height="114.163" fill="none"/>
    </clipPath>
    <clipPath id="clip-path-9">
      <rect id="Rectangle_68" data-name="Rectangle 68" width="8.018" height="30.58" fill="none"/>
    </clipPath>
    <clipPath id="clip-path-10">
      <rect id="Rectangle_69" data-name="Rectangle 69" width="11.06" height="13.053" fill="none"/>
    </clipPath>
    <clipPath id="clip-path-11">
      <rect id="Rectangle_70" data-name="Rectangle 70" width="16.171" height="70.926" fill="none"/>
    </clipPath>
    <clipPath id="clip-path-12">
      <rect id="Rectangle_71" data-name="Rectangle 71" width="41.226" height="54.629" fill="none"/>
    </clipPath>
    <clipPath id="clip-path-14">
      <rect id="Rectangle_77" data-name="Rectangle 77" width="412.374" height="298.992" fill="none"/>
    </clipPath>
    <clipPath id="clip-path-15">
      <rect id="Rectangle_78" data-name="Rectangle 78" width="118.344" height="275.278" fill="none"/>
    </clipPath>
    <clipPath id="clip-path-16">
      <rect id="Rectangle_79" data-name="Rectangle 79" width="57.925" height="20.4" fill="none"/>
    </clipPath>
    <clipPath id="clip-path-17">
      <rect id="Rectangle_80" data-name="Rectangle 80" width="57.889" height="37.001" fill="none"/>
    </clipPath>
    <clipPath id="clip-path-18">
      <rect id="Rectangle_81" data-name="Rectangle 81" width="57.425" height="6.773" fill="none"/>
    </clipPath>
    <clipPath id="clip-path-19">
      <rect id="Rectangle_82" data-name="Rectangle 82" width="38.922" height="6.773" fill="none"/>
    </clipPath>
    <clipPath id="clip-path-20">
      <rect id="Rectangle_83" data-name="Rectangle 83" width="57.427" height="6.773" fill="none"/>
    </clipPath>
    <clipPath id="clip-path-21">
      <rect id="Rectangle_84" data-name="Rectangle 84" width="38.921" height="6.773" fill="none"/>
    </clipPath>
    <clipPath id="clip-path-24">
      <rect id="Rectangle_87" data-name="Rectangle 87" width="260.685" height="94.904" fill="none"/>
    </clipPath>
    <clipPath id="clip-path-25">
      <rect id="Rectangle_88" data-name="Rectangle 88" width="258.822" height="114.574" fill="none"/>
    </clipPath>
    <clipPath id="clip-path-26">
      <rect id="Rectangle_89" data-name="Rectangle 89" width="259.018" height="39.001" fill="none"/>
    </clipPath>
    <clipPath id="clip-path-27">
      <rect id="Rectangle_90" data-name="Rectangle 90" width="36.663" height="34.804" fill="none"/>
    </clipPath>
    <clipPath id="clip-path-28">
      <rect id="Rectangle_91" data-name="Rectangle 91" width="36.664" height="34.803" fill="none"/>
    </clipPath>
    <clipPath id="clip-path-29">
      <rect id="Rectangle_93" data-name="Rectangle 93" width="227.429" height="4.408" fill="none"/>
    </clipPath>
    <clipPath id="clip-path-30">
      <rect id="Rectangle_94" data-name="Rectangle 94" width="190.929" height="4.408" fill="none"/>
    </clipPath>
  </defs>
  <g id="Group_138" data-name="Group 138" clip-path="url(#clip-path)">
    <g id="Group_55" data-name="Group 55">
      <g id="Group_54" data-name="Group 54" clip-path="url(#clip-path)">
        <path id="Path_72" data-name="Path 72" d="M576.124,324.346c0,9.292-128.97,16.823-288.062,16.823S0,333.637,0,324.346s128.97-16.823,288.062-16.823,288.062,7.533,288.062,16.823" transform="translate(0 149.365)" fill="#0d3d8c"/>
      </g>
    </g>
    <path id="Path_73" data-name="Path 73" d="M89.573,320.773l11.633-4.413-7.122-28.112-11.633,4.413Z" transform="translate(40.047 140.003)" fill="#b55b52"/>
    <path id="Path_74" data-name="Path 74" d="M28.416,319.711H40.857L42.722,290.9H30.28Z" transform="translate(13.802 141.292)" fill="#b55b52"/>
    <g id="Group_84" data-name="Group 84">
      <g id="Group_83" data-name="Group 83" clip-path="url(#clip-path)">
        <path id="Path_75" data-name="Path 75" d="M43.55,309.323H28.383a1.022,1.022,0,0,0-1.018.85l-1.908,11.058a1.934,1.934,0,0,0,1.931,2.212c4.875-.083,8.422-.37,14.569-.37,3.781,0,15.2.394,20.427.394,5.108,0,5.647-5.164,3.487-5.632-9.691-2.1-17.057-4.987-20.264-7.746a3.161,3.161,0,0,0-2.058-.765" transform="translate(12.352 150.24)" fill="#263238"/>
        <path id="Path_76" data-name="Path 76" d="M99.057,307.367l-12.7,4.818a1.086,1.086,0,0,0-.689,1.171l1.624,11.211A1.809,1.809,0,0,0,89.746,326c4.554-1.816,8.418-4.12,14.215-6.2,6.779-2.434,13.51-5.035,18.995-8.531,4.307-2.744,2.493-7.938.462-7.124-9.246,3.711-11.513,4.933-21.216,3.066a5.754,5.754,0,0,0-3.145.156" transform="translate(41.602 147.682)" fill="#263238"/>
        <path id="Path_77" data-name="Path 77" d="M78.018,55.1c3.915,6.919,8.039,14.049,12.2,20.948,4.153,6.931,8.424,13.78,12.954,20.2,1.1,1.628,2.313,3.182,3.407,4.689a4.139,4.139,0,0,0,.966,1.12,3.592,3.592,0,0,0,2.257.354,15.6,15.6,0,0,0,4.154-.988,51.236,51.236,0,0,0,9.595-5.026c1.6-1.052,3.231-2.138,4.823-3.292,1.57-1.138,3.2-2.414,4.646-3.532l6.977,6.21a65.864,65.864,0,0,1-4.083,5.308c-1.419,1.689-2.894,3.35-4.5,4.919a59.33,59.33,0,0,1-5.106,4.563,43.651,43.651,0,0,1-5.992,4.074,30.1,30.1,0,0,1-7.552,3.074,20.292,20.292,0,0,1-10.036-.03,18.872,18.872,0,0,1-9.156-5.781c-1.49-1.729-2.948-3.343-4.309-5.051a234.912,234.912,0,0,1-15-20.871C69.664,78.821,65.419,71.645,61.4,64.019Z" transform="translate(29.823 26.762)" fill="#b65b52"/>
        <path id="Path_78" data-name="Path 78" d="M57.84,58.673C54.485,70.084,78.1,101.2,78.1,101.2l23.81-15.322S94.912,70,85.411,57.9c-9.757-12.428-23.89-11.747-27.572.777" transform="translate(27.934 23.76)" fill="#407bff"/>
        <g id="Group_58" data-name="Group 58" transform="translate(85.448 72.681)" opacity="0.2">
          <g id="Group_57" data-name="Group 57">
            <g id="Group_56" data-name="Group 56" clip-path="url(#clip-path-4)">
              <path id="Path_79" data-name="Path 79" d="M57.84,58.673C54.485,70.084,78.1,101.2,78.1,101.2l23.81-15.322S94.912,70,85.411,57.9c-9.757-12.428-23.89-11.747-27.572.777" transform="translate(-57.514 -48.921)"/>
            </g>
          </g>
        </g>
        <g id="Group_61" data-name="Group 61" transform="translate(90.849 95.595)" opacity="0.2">
          <g id="Group_60" data-name="Group 60">
            <g id="Group_59" data-name="Group 59" clip-path="url(#clip-path-5)">
              <path id="Path_80" data-name="Path 80" d="M70.588,64.579c4.9,2.093,12.106,13.887,15.855,22.63L76.337,93.7A190.505,190.505,0,0,1,61.149,69.9c3.193-3.5,6.851-6.418,9.439-5.317" transform="translate(-61.149 -64.343)"/>
            </g>
          </g>
        </g>
        <path id="Path_81" data-name="Path 81" d="M108.619,84.908l4.362-12.217L125.363,78.6s-2.57,10.9-11.63,10.878Z" transform="translate(52.757 35.306)" fill="#b55b52"/>
        <path id="Path_82" data-name="Path 82" d="M122.575,67.274l5.239,5.791-3.876,8.165-12.382-5.909Z" transform="translate(54.183 32.675)" fill="#b55b52"/>
        <g id="Group_64" data-name="Group 64" transform="translate(122.492 428.261)" opacity="0.2">
          <g id="Group_63" data-name="Group 63">
            <g id="Group_62" data-name="Group 62" clip-path="url(#clip-path-6)">
              <path id="Path_83" data-name="Path 83" d="M94.085,288.255l3.673,14.49L86.12,307.159l-3.673-14.49Z" transform="translate(-82.447 -288.255)"/>
            </g>
          </g>
        </g>
        <g id="Group_67" data-name="Group 67" transform="translate(43.111 432.2)" opacity="0.2">
          <g id="Group_66" data-name="Group 66">
            <g id="Group_65" data-name="Group 65" clip-path="url(#clip-path-7)">
              <path id="Path_84" data-name="Path 84" d="M29.984,290.906H42.43l-.966,14.851H29.017Z" transform="translate(-29.017 -290.906)"/>
            </g>
          </g>
        </g>
        <path id="Path_85" data-name="Path 85" d="M20.406,54.237c13.4,47.257,11.208,97.4,12.045,107.59,9.751-.349,46.479-1.734,66.5-2.492,11.3-70.445-8.99-109.654-8.99-109.654s-4.265-.829-10.069-1.423c-1.821-.187-3.783-.351-5.827-.458-1.129-.068-2.276-.1-3.439-.128-7.507-.123-19.767,1.07-28.214,2.1-1.768.22-3.57.486-5.31.77-1.616.276-3.2.569-4.695.869-6.773,1.349-12,2.823-12,2.823" transform="translate(9.911 23.151)" fill="#407bff"/>
        <g id="Group_70" data-name="Group 70" transform="translate(30.317 70.815)" opacity="0.2">
          <g id="Group_69" data-name="Group 69">
            <g id="Group_68" data-name="Group 68" clip-path="url(#clip-path-8)">
              <path id="Path_86" data-name="Path 86" d="M20.406,54.237c13.4,47.257,11.208,97.4,12.045,107.59,9.751-.349,46.479-1.734,66.5-2.492,11.3-70.445-8.99-109.654-8.99-109.654s-4.265-.829-10.069-1.423c-1.821-.187-3.783-.351-5.827-.458-1.129-.068-2.276-.1-3.439-.128-7.507-.123-19.767,1.07-28.214,2.1-1.768.22-3.57.486-5.31.77-1.616.276-3.2.569-4.695.869-6.773,1.349-12,2.823-12,2.823" transform="translate(-20.406 -47.664)"/>
            </g>
          </g>
        </g>
        <g id="Group_73" data-name="Group 73" transform="translate(36.865 97.66)" opacity="0.2">
          <g id="Group_72" data-name="Group 72">
            <g id="Group_71" data-name="Group 71" clip-path="url(#clip-path-9)">
              <path id="Path_87" data-name="Path 87" d="M32.423,65.733c1.193,4.572-.171,25.435-4.944,30.58-.651-6.68-1.518-13.655-2.665-20.785Z" transform="translate(-24.813 -65.733)"/>
            </g>
          </g>
        </g>
        <path id="Path_88" data-name="Path 88" d="M35.651,27.563c2.454,8.944,5.469,25.443-.431,31.971,5.3,4.536,12.169,9.722,22.975,9.3s8.372-7.7,5.234-11.4c-10.3-1.664-10.6-9.194-9.361-16.377Z" transform="translate(17.107 13.387)" fill="#b55b52"/>
        <path id="Path_89" data-name="Path 89" d="M52.569,54.306l1.963,1.327L47.37,57.719,49.214,54.4Z" transform="translate(23.008 26.377)" fill="#407bff"/>
        <path id="Path_90" data-name="Path 90" d="M52.93,53.837l-.74,2.025,7.189,2.084L58.894,54.1Z" transform="translate(25.349 26.149)" fill="#407bff"/>
        <path id="Path_91" data-name="Path 91" d="M32.56,49.181l2.83-1.42A2.717,2.717,0,0,1,38.234,48a56.452,56.452,0,0,0,21.876,9.627c-5.683,2.713-4.276,9.988-4.276,9.988S37.781,61.663,31.985,50.885a1.263,1.263,0,0,1,.575-1.7" transform="translate(15.467 23.055)" fill="#fff"/>
        <path id="Path_92" data-name="Path 92" d="M58.1,47.565l-4.15-.624a.549.549,0,0,0-.529.862c1.45,2.055,3.855,6.6-.732,9.385,5.683,2.713,7.451,9.351,7.451,9.351s7.4-7.984-1.227-18.513a1.314,1.314,0,0,0-.813-.461" transform="translate(25.591 22.796)" fill="#fff"/>
        <g id="Group_76" data-name="Group 76" transform="translate(60.106 46.458)" opacity="0.2">
          <g id="Group_75" data-name="Group 75">
            <g id="Group_74" data-name="Group 74" clip-path="url(#clip-path-10)">
              <path id="Path_93" data-name="Path 93" d="M40.616,31.27l10.9,7.981a29.061,29.061,0,0,0-.5,5.072c-3.907-.27-9.535-4.12-10.247-8.137a13.649,13.649,0,0,1-.156-4.916" transform="translate(-40.456 -31.27)"/>
            </g>
          </g>
        </g>
        <path id="Path_94" data-name="Path 94" d="M60.242,18.957c-.5,4.316-4.641,8.039-7.325,8.969L49.579,9.118c7.5-5.289,11.363,3.771,10.663,9.838" transform="translate(24.081 3.654)" fill="#263238"/>
        <path id="Path_95" data-name="Path 95" d="M33.07,25.248C35.233,37.4,35.881,44.629,42.788,50.2c10.391,8.381,24.857,1.033,26.37-11.525,1.362-11.3-2.4-29.283-14.949-32.775A16.84,16.84,0,0,0,33.07,25.248" transform="translate(15.929 2.548)" fill="#b55b52"/>
        <path id="Path_96" data-name="Path 96" d="M38.277,35.993c5.629,2.992,8.109-3.734,8.158-6.458.076-4.344-1.805-9.106-4.046-10.85,10.869-.064,32.375-.536,26.951-10.892S53.052-1.379,44.863,4.283c-4.326,2.992-18.325.388-14.854,8.46-7.3,3.876-.969,18.341,8.268,23.25" transform="translate(13.032 0)" fill="#263238"/>
        <path id="Path_97" data-name="Path 97" d="M31.528,8.723A8.876,8.876,0,0,1,26.163,6.9a5.087,5.087,0,0,0,4.748,3.934Z" transform="translate(12.707 3.351)" fill="#263238"/>
        <path id="Path_98" data-name="Path 98" d="M30.114,28.03A11.74,11.74,0,0,0,36.9,33.891c3.916,1.266,4.814-2.325,3.864-6.106-.856-3.4-2.7-8.038-6.7-7.657-3.937.374-5.628,4.487-3.949,7.9" transform="translate(14.313 9.765)" fill="#b55b52"/>
        <path id="Path_99" data-name="Path 99" d="M102.049,254.356c-5.056-37.633-14.487-131.525-14.487-131.525l-43.715,1.64S64.466,218.3,71.928,256.344s28.218,129.87,28.218,129.87l19.7-7.461s-12.533-85.268-17.8-124.4" transform="translate(21.297 59.659)" fill="#263238"/>
        <g id="Group_79" data-name="Group 79" transform="translate(71.749 209.426)" opacity="0.2">
          <g id="Group_78" data-name="Group 78">
            <g id="Group_77" data-name="Group 77" clip-path="url(#clip-path-11)">
              <path id="Path_100" data-name="Path 100" d="M58.011,140.961c-2.728.682-7.036,2.356-9.718,4.976,4.123,18.971,9.516,43.941,14.151,65.95,3.162-19.065,3.254-55.039-4.433-70.926" transform="translate(-48.293 -140.961)"/>
            </g>
          </g>
        </g>
        <path id="Path_101" data-name="Path 101" d="M72.734,123.427S63.459,225.281,59.209,261.486c-4.653,39.648-10.462,122.74-10.462,122.74H25.961s-.945-73.49,2.016-112.3c3.374-44.207,1.85-146.886,1.85-146.886Z" transform="translate(12.54 59.949)" fill="#263238"/>
        <path id="Path_102" data-name="Path 102" d="M52.246,302.088H25.414l-.565-8.015,29.956-.522Z" transform="translate(12.069 142.579)" fill="#407bff"/>
        <path id="Path_103" data-name="Path 103" d="M105.4,297.716l-23.473,8.9-2.876-7.583,26.087-10.351Z" transform="translate(38.394 140.215)" fill="#407bff"/>
        <path id="Path_104" data-name="Path 104" d="M45.751,20.208c.114,1,.735,1.744,1.388,1.668s1.088-.943.972-1.94-.735-1.744-1.388-1.668-1.086.943-.972,1.94" transform="translate(22.213 8.87)" fill="#263238"/>
        <path id="Path_105" data-name="Path 105" d="M53.335,19.334c.114,1,.737,1.744,1.388,1.668s1.088-.943.972-1.94-.735-1.744-1.388-1.668-1.086.943-.972,1.94" transform="translate(25.896 8.446)" fill="#263238"/>
        <path id="Path_106" data-name="Path 106" d="M50.956,19.31s2.93,5.49,5.745,7.977c-1.575,1.85-4.659,1.443-4.659,1.443Z" transform="translate(24.75 9.379)" fill="#a02724"/>
        <path id="Path_107" data-name="Path 107" d="M51.051,28.785a8.271,8.271,0,0,1-6.008-2.618.295.295,0,0,1,.453-.377,7.97,7.97,0,0,0,6.794,2.346.295.295,0,1,1,.068.585,9.968,9.968,0,0,1-1.307.064" transform="translate(21.845 12.475)" fill="#263238"/>
        <path id="Path_108" data-name="Path 108" d="M43.313,18.652a.575.575,0,0,1-.287-.082.589.589,0,0,1-.209-.807A5.845,5.845,0,0,1,47.3,14.8a.589.589,0,0,1,.055,1.177,4.664,4.664,0,0,0-3.527,2.388.59.59,0,0,1-.52.29" transform="translate(20.757 7.187)" fill="#263238"/>
        <path id="Path_109" data-name="Path 109" d="M57.824,16.928a.589.589,0,0,1-.486-.273,4.676,4.676,0,0,0-3.607-2.266.589.589,0,0,1,.015-1.178,5.854,5.854,0,0,1,4.586,2.811.59.59,0,0,1-.508.906" transform="translate(25.816 6.417)" fill="#263238"/>
        <path id="Path_110" data-name="Path 110" d="M41.62,311.816a14.979,14.979,0,0,1-3.277-.447.312.312,0,0,1-.233-.239.281.281,0,0,1,.119-.3c.44-.284,4.331-2.749,5.741-2.041a1,1,0,0,1,.547.833,1.7,1.7,0,0,1-.532,1.557,3.636,3.636,0,0,1-2.364.634m-2.444-.862c2.133.423,3.754.346,4.407-.224a1.151,1.151,0,0,0,.348-1.07.382.382,0,0,0-.2-.345c-.734-.368-2.967.7-4.551,1.639" transform="translate(18.507 149.92)" fill="#407bff"/>
        <path id="Path_111" data-name="Path 111" d="M38.411,312.331a.293.293,0,0,1-.162-.048.31.31,0,0,1-.147-.269c0-.153.123-3.743,1.509-4.924a1.553,1.553,0,0,1,1.238-.379,1.025,1.025,0,0,1,.976.773c.331,1.386-2.022,4.112-3.275,4.811a.287.287,0,0,1-.14.036m2.261-5.042a.994.994,0,0,0-.664.258c-.89.758-1.183,2.85-1.276,3.9,1.232-.972,2.716-3.032,2.518-3.851-.016-.076-.059-.251-.444-.3a1.049,1.049,0,0,0-.134-.009" transform="translate(18.506 148.965)" fill="#407bff"/>
        <path id="Path_112" data-name="Path 112" d="M95.955,308.665a.29.29,0,0,1-.266-.152.294.294,0,0,1,.039-.339c.425-.474,4.2-4.618,5.913-4.366a.938.938,0,0,1,.734.56,1.651,1.651,0,0,1-.009,1.536c-.847,1.613-4.355,2.42-6.371,2.757l-.04,0m5.484-4.28c-.992.03-3.162,1.958-4.673,3.536,2.731-.547,4.6-1.385,5.078-2.289a1.074,1.074,0,0,0,0-1.012.353.353,0,0,0-.285-.229.751.751,0,0,0-.117-.006" transform="translate(46.459 147.556)" fill="#407bff"/>
        <path id="Path_113" data-name="Path 113" d="M96.077,309.2a.259.259,0,0,1-.083-.009.294.294,0,0,1-.21-.207c-.037-.138-.912-3.39.107-5.167a2.162,2.162,0,0,1,1.349-1.052c.786-.21,1.15.091,1.318.382.712,1.235-1.116,4.8-2.281,5.967a.29.29,0,0,1-.2.086m1.618-5.915a1.388,1.388,0,0,0-.3.049,1.57,1.57,0,0,0-.989.777c-.67,1.166-.373,3.2-.175,4.169,1.107-1.4,2.248-4.1,1.82-4.839-.025-.046-.094-.163-.352-.156m-.379-.235h0Z" transform="translate(46.336 147.021)" fill="#407bff"/>
        <path id="Path_114" data-name="Path 114" d="M42.183,66.738c-3.732,7.69-7.535,15.625-11.223,23.438-1.829,3.93-3.665,7.847-5.4,11.785l-2.579,5.9-1.232,2.949-.308.738-.215.548c-.153.351-.25.707-.382,1.061a18.012,18.012,0,0,0-.487,9.038,31.1,31.1,0,0,0,3.918,9.884,61.264,61.264,0,0,0,7.075,9.575c1.349,1.541,2.765,3.055,4.254,4.5.743.725,1.5,1.438,2.27,2.13.738.692,1.579,1.434,2.236,2l-4.956,7.919a61.37,61.37,0,0,1-6.23-3.646c-1.975-1.3-3.91-2.674-5.785-4.158a63.97,63.97,0,0,1-10.381-10.335,43.5,43.5,0,0,1-7.506-13.908,33.428,33.428,0,0,1-.719-17.2c.178-.706.337-1.426.557-2.117l.572-1.842,1.055-3.276c.731-2.159,1.456-4.329,2.258-6.449,1.56-4.27,3.193-8.486,4.947-12.642C17.4,74.284,21.155,66.226,25.4,58.133Z" transform="translate(1.814 28.235)" fill="#b65b52"/>
        <path id="Path_115" data-name="Path 115" d="M27.768,52.445C16.417,56,5.255,94.488,5.255,94.488l26.263,11.5s8.5-18.6,13.382-33.176c5.32-15.878-3.381-24.669-17.132-20.363" transform="translate(2.552 24.944)" fill="#407bff"/>
        <g id="Group_82" data-name="Group 82" transform="translate(7.806 76.298)" opacity="0.2">
          <g id="Group_81" data-name="Group 81">
            <g id="Group_80" data-name="Group 80" clip-path="url(#clip-path-12)">
              <path id="Path_116" data-name="Path 116" d="M27.768,52.445C16.417,56,5.255,94.488,5.255,94.488l26.263,11.5s8.5-18.6,13.382-33.176c5.32-15.878-3.381-24.669-17.132-20.363" transform="translate(-5.254 -51.355)"/>
            </g>
          </g>
        </g>
        <path id="Path_117" data-name="Path 117" d="M28.527,118.523l10.862,6.457L28.824,135.5s-9.176-7.057-6.439-12.588Z" transform="translate(10.625 57.567)" fill="#b55b52"/>
        <path id="Path_118" data-name="Path 118" d="M44.369,133.165,33.474,140.8l-6.922-7.411,10.565-10.517Z" transform="translate(12.897 59.678)" fill="#b55b52"/>
      </g>
    </g>
    <rect id="Rectangle_73" data-name="Rectangle 73" width="7.18" height="1.487" transform="translate(582.302 180.479) rotate(-85.874)" fill="#407bff"/>
    <rect id="Rectangle_74" data-name="Rectangle 74" width="20.815" height="1.487" transform="translate(583.266 166.986) rotate(-85.873)" fill="#407bff"/>
    <g id="Group_137" data-name="Group 137">
      <g id="Group_136" data-name="Group 136" clip-path="url(#clip-path)">
        <path id="Path_119" data-name="Path 119" d="M491.333,356.6h-363.9a18.62,18.62,0,0,1-18.769-20.217L127.915,67.772a22.138,22.138,0,0,1,21.666-20.217h363.9a18.619,18.619,0,0,1,18.767,20.217L513,336.383A22.137,22.137,0,0,1,491.333,356.6" transform="translate(52.751 23.098)" fill="#407bff"/>
        <path id="Path_120" data-name="Path 120" d="M354.735,366.563H236.616L215.562,220.6H333.682Z" transform="translate(104.699 107.148)" fill="#407bff"/>
        <path id="Path_121" data-name="Path 121" d="M339.214,312.992H211.439l-2.538,8.7H336.677Z" transform="translate(101.464 152.021)" fill="#407bff"/>
        <path id="Path_122" data-name="Path 122" d="M339.917,290.868l-115.127-6.29L215.562,220.6H329.781Z" transform="translate(104.699 107.148)" fill="#263238"/>
        <path id="Path_123" data-name="Path 123" d="M488.568,356.6h-363.9A18.619,18.619,0,0,1,105.9,336.383L125.15,67.772a22.138,22.138,0,0,1,21.666-20.217h363.9a18.619,18.619,0,0,1,18.767,20.217L510.234,336.383A22.138,22.138,0,0,1,488.568,356.6" transform="translate(51.408 23.098)" fill="#263238"/>
        <rect id="Rectangle_75" data-name="Rectangle 75" width="154.49" height="1.42" transform="matrix(0.071, -0.997, 0.997, 0.071, 568.977, 247.574)" fill="#fff"/>
        <rect id="Rectangle_76" data-name="Rectangle 76" width="53.493" height="1.419" transform="matrix(0.071, -0.997, 0.997, 0.071, 564.176, 314.315)" fill="#fff"/>
        <path id="Path_124" data-name="Path 124" d="M485.947,349.93H124.3a14.492,14.492,0,0,1-14.609-15.737L128.87,66.675a17.231,17.231,0,0,1,16.864-15.737H507.379a14.494,14.494,0,0,1,14.609,15.737L502.812,334.193a17.23,17.23,0,0,1-16.864,15.737" transform="translate(53.259 24.741)" fill="#fff"/>
        <g id="Group_87" data-name="Group 87" transform="translate(162.913 75.679)" opacity="0.2">
          <g id="Group_86" data-name="Group 86">
            <g id="Group_85" data-name="Group 85" clip-path="url(#clip-path-14)">
              <path id="Path_125" data-name="Path 125" d="M485.947,349.93H124.3a14.492,14.492,0,0,1-14.609-15.737L128.87,66.675a17.231,17.231,0,0,1,16.864-15.737H507.379a14.494,14.494,0,0,1,14.609,15.737L502.812,334.193a17.23,17.23,0,0,1-16.864,15.737" transform="translate(-109.654 -50.938)" fill="#407bff"/>
            </g>
          </g>
        </g>
        <g id="Group_90" data-name="Group 90" transform="translate(178.791 87.536)" opacity="0.5">
          <g id="Group_89" data-name="Group 89">
            <g id="Group_88" data-name="Group 88" clip-path="url(#clip-path-15)">
              <path id="Path_126" data-name="Path 126" d="M211.877,334.2H127.419a7,7,0,0,1-7.059-7.6L139,66.521a8.324,8.324,0,0,1,8.148-7.6h84.458a7,7,0,0,1,7.057,7.6L220.024,326.594a8.326,8.326,0,0,1-8.148,7.6" transform="translate(-120.341 -58.919)" fill="#fff"/>
            </g>
          </g>
        </g>
        <g id="Group_93" data-name="Group 93" transform="translate(216.969 103.8)" opacity="0.4">
          <g id="Group_92" data-name="Group 92">
            <g id="Group_91" data-name="Group 91" clip-path="url(#clip-path-16)">
              <path id="Path_127" data-name="Path 127" d="M196.126,90.266H152.413a6.306,6.306,0,0,1-6.357-6.848l.48-6.7a7.5,7.5,0,0,1,7.339-6.848h43.712a6.306,6.306,0,0,1,6.357,6.848l-.48,6.7a7.5,7.5,0,0,1-7.339,6.848" transform="translate(-146.038 -69.866)" fill="#407bff"/>
            </g>
          </g>
        </g>
        <path id="Path_128" data-name="Path 128" d="M186.5,184.033H119.764a11,11,0,0,1-11.094-11.948l4.785-66.733a13.083,13.083,0,0,1,12.8-11.948h66.732a11,11,0,0,1,11.094,11.948L199.3,172.085a13.083,13.083,0,0,1-12.8,11.948" transform="translate(52.767 45.367)" fill="#407bff"/>
        <path id="Path_129" data-name="Path 129" d="M169.311,117.579a4.986,4.986,0,0,0-4.881,4.554l-.7,9.69a4.194,4.194,0,0,0,4.227,4.552h6.776a1.231,1.231,0,0,0,1.209-1.129l1.186-16.537a1.036,1.036,0,0,0-1.047-1.129Z" transform="translate(79.521 57.109)" fill="#fff"/>
        <path id="Path_130" data-name="Path 130" d="M164.459,106.029H122.394A1.68,1.68,0,0,1,120.7,104.2a2,2,0,0,1,1.955-1.826h42.065a1.682,1.682,0,0,1,1.7,1.826,2,2,0,0,1-1.957,1.826" transform="translate(58.622 49.725)" fill="#fff"/>
        <path id="Path_131" data-name="Path 131" d="M164.011,112.283H121.947a1.682,1.682,0,0,1-1.7-1.826,2,2,0,0,1,1.957-1.824h42.065a1.682,1.682,0,0,1,1.7,1.824,2,2,0,0,1-1.957,1.826" transform="translate(58.404 52.764)" fill="#fff"/>
        <path id="Path_132" data-name="Path 132" d="M149.029,118.538H121.5a1.682,1.682,0,0,1-1.7-1.826,2,2,0,0,1,1.957-1.824h27.53a1.681,1.681,0,0,1,1.7,1.824,2,2,0,0,1-1.957,1.826" transform="translate(58.187 55.802)" fill="#fff"/>
        <g id="Group_96" data-name="Group 96" transform="translate(175.225 181.617)" opacity="0.5">
          <g id="Group_95" data-name="Group 95">
            <g id="Group_94" data-name="Group 94" clip-path="url(#clip-path-17)">
              <path id="Path_133" data-name="Path 133" d="M165.907,159.244h-40.7a7.193,7.193,0,0,1-7.25-7.81l1.533-21.381a8.552,8.552,0,0,1,8.37-7.81h40.695a7.194,7.194,0,0,1,7.25,7.81l-1.532,21.381a8.553,8.553,0,0,1-8.37,7.81" transform="translate(-117.941 -122.243)" fill="#fff"/>
            </g>
          </g>
        </g>
        <g id="Group_99" data-name="Group 99" transform="translate(207.398 247.622)" opacity="0.4">
          <g id="Group_98" data-name="Group 98">
            <g id="Group_97" data-name="Group 97" clip-path="url(#clip-path-18)">
              <path id="Path_134" data-name="Path 134" d="M193.384,173.443H142.749a3.118,3.118,0,0,1-3.144-3.386,3.709,3.709,0,0,1,3.63-3.387H193.87a3.12,3.12,0,0,1,3.144,3.387,3.709,3.709,0,0,1-3.63,3.386" transform="translate(-139.596 -166.67)" fill="#407bff"/>
            </g>
          </g>
        </g>
        <g id="Group_102" data-name="Group 102" transform="translate(215.698 260.913)" opacity="0.8">
          <g id="Group_101" data-name="Group 101">
            <g id="Group_100" data-name="Group 100" clip-path="url(#clip-path-19)">
              <path id="Path_135" data-name="Path 135" d="M180.466,182.389H148.335A3.119,3.119,0,0,1,145.191,179a3.709,3.709,0,0,1,3.63-3.387h32.131A3.12,3.12,0,0,1,184.1,179a3.709,3.709,0,0,1-3.63,3.386" transform="translate(-145.182 -175.616)" fill="#fff"/>
            </g>
          </g>
        </g>
        <g id="Group_105" data-name="Group 105" transform="translate(204.769 284.3)" opacity="0.4">
          <g id="Group_104" data-name="Group 104">
            <g id="Group_103" data-name="Group 103" clip-path="url(#clip-path-20)">
              <path id="Path_136" data-name="Path 136" d="M191.614,198.13H140.979a3.118,3.118,0,0,1-3.144-3.386,3.709,3.709,0,0,1,3.63-3.387H192.1a3.12,3.12,0,0,1,3.144,3.387,3.709,3.709,0,0,1-3.63,3.386" transform="translate(-137.826 -191.357)" fill="#407bff"/>
            </g>
          </g>
        </g>
        <g id="Group_108" data-name="Group 108" transform="translate(213.069 297.591)" opacity="0.8">
          <g id="Group_107" data-name="Group 107">
            <g id="Group_106" data-name="Group 106" clip-path="url(#clip-path-21)">
              <path id="Path_137" data-name="Path 137" d="M178.7,207.076H146.565a3.118,3.118,0,0,1-3.144-3.386,3.709,3.709,0,0,1,3.63-3.387h32.131a3.12,3.12,0,0,1,3.144,3.387,3.709,3.709,0,0,1-3.63,3.386" transform="translate(-143.413 -200.303)" fill="#fff"/>
            </g>
          </g>
        </g>
        <g id="Group_111" data-name="Group 111" transform="translate(202.14 320.978)" opacity="0.4">
          <g id="Group_110" data-name="Group 110">
            <g id="Group_109" data-name="Group 109" clip-path="url(#clip-path-18)">
              <path id="Path_138" data-name="Path 138" d="M189.845,222.817H139.21a3.118,3.118,0,0,1-3.144-3.386,3.709,3.709,0,0,1,3.63-3.387h50.636a3.12,3.12,0,0,1,3.144,3.387,3.709,3.709,0,0,1-3.63,3.386" transform="translate(-136.057 -216.044)" fill="#407bff"/>
            </g>
          </g>
        </g>
        <g id="Group_114" data-name="Group 114" transform="translate(210.44 334.269)" opacity="0.8">
          <g id="Group_113" data-name="Group 113">
            <g id="Group_112" data-name="Group 112" clip-path="url(#clip-path-21)">
              <path id="Path_139" data-name="Path 139" d="M176.927,231.763H144.8a3.118,3.118,0,0,1-3.144-3.386,3.709,3.709,0,0,1,3.63-3.387h32.131a3.121,3.121,0,0,1,3.144,3.387,3.709,3.709,0,0,1-3.63,3.386" transform="translate(-141.643 -224.99)" fill="#fff"/>
            </g>
          </g>
        </g>
        <g id="Group_117" data-name="Group 117" transform="translate(289.406 267.913)" opacity="0.5">
          <g id="Group_116" data-name="Group 116">
            <g id="Group_115" data-name="Group 115" clip-path="url(#clip-path-24)">
              <path id="Path_140" data-name="Path 140" d="M448.518,198.968c2.2-3.349,7.226-1.933,6.949,1.945L450.6,268.884c-.251,3.5-2.894,6.347-5.9,6.347H199.8c-3,0-5.237-2.845-4.986-6.347l2.894-40.384c.391-5.447,5.932-9.369,11.028-7.781,13.8,4.3,25.63,1.775,36.621-3.673,23.51-11.672,43.18-36.719,70.207-36.719,1.036,0,2.058.027,3.049.092,40.2,2.426,52.453,52.364,83.6,52.364,9.205,0,17.607-3.974,24.924-9.639,8.962-6.931,16.28-16.392,21.384-24.175" transform="translate(-194.794 -180.327)" fill="#407bff"/>
            </g>
          </g>
        </g>
        <g id="Group_120" data-name="Group 120" transform="translate(289.406 248.242)" opacity="0.5">
          <g id="Group_119" data-name="Group 119">
            <g id="Group_118" data-name="Group 118" clip-path="url(#clip-path-25)">
              <path id="Path_141" data-name="Path 141" d="M453.6,233.4l-3,41.912c-.251,3.5-2.894,6.347-5.9,6.347H199.8c-3,0-5.239-2.845-4.987-6.347l5.97-83.286c.409-5.7,7.885-8.1,10.911-3.488,7.813,11.921,19.837,27.316,33.663,34.935a34.408,34.408,0,0,0,16.542,4.681c19.79,0,36.618-23.473,56.714-41.307,12.324-10.936,25.874-19.763,42.083-19.763,33.834,0,38.823,54.973,66.439,62.487,5.325,1.456,11.484,1.14,18.861-1.679a5.487,5.487,0,0,1,7.6,5.507" transform="translate(-194.794 -167.087)" fill="#407bff"/>
            </g>
          </g>
        </g>
        <g id="Group_123" data-name="Group 123" transform="translate(290.899 294.135)" opacity="0.8">
          <g id="Group_122" data-name="Group 122">
            <g id="Group_121" data-name="Group 121" clip-path="url(#clip-path-26)">
              <path id="Path_142" data-name="Path 142" d="M369.965,201.118a.545.545,0,0,1-.357-.149.375.375,0,0,1-.105-.163.48.48,0,0,1-.045-.193.49.49,0,0,1,.15-.357.5.5,0,0,1,.712,0,.457.457,0,0,1,.15.357.8.8,0,0,1-.031.193.592.592,0,0,1-.119.163.512.512,0,0,1-.355.149" transform="translate(-111.452 -196.943)" fill="#fff"/>
              <path id="Path_143" data-name="Path 143" d="M214.572,236.962a.5.5,0,1,1,0-1v-.013a.513.513,0,0,1,0,1.025Zm-5.1-.281h.015a.494.494,0,0,1-.461-.55.508.508,0,0,1,1.01.1.514.514,0,0,1-.505.461.11.11,0,0,1-.059-.015m9.612-.446a.508.508,0,1,1,.563.446h-.059a.511.511,0,0,1-.5-.446m-14.634-.328a.515.515,0,1,1,.609-.4.523.523,0,0,1-.507.4Zm19.595-.5a.5.5,0,0,1,.371-.624.519.519,0,0,1,.611.371.525.525,0,0,1-.371.624v-.015a.378.378,0,0,1-.12.015.485.485,0,0,1-.49-.371m162.493.208a.5.5,0,0,1-.505-.507.512.512,0,0,1,.505-.505.506.506,0,0,1,0,1.012m4.53-.713a.509.509,0,0,1,1.012-.105.514.514,0,0,1-.462.565h-.043a.514.514,0,0,1-.507-.459m-9.611.4a.494.494,0,0,1-.431-.566.5.5,0,0,1,.563-.444.515.515,0,0,1-.059,1.025.132.132,0,0,1-.073-.015m-181.939-.609a.515.515,0,0,1-.358-.624.529.529,0,0,1,.64-.357.52.52,0,0,1,.342.639.5.5,0,0,1-.492.357.4.4,0,0,1-.132-.015m196.544-.49a.49.49,0,0,1,.4-.594.506.506,0,1,1,.195.994c-.03,0-.059.015-.089.015a.521.521,0,0,1-.505-.415m-19.6.178a.484.484,0,0,1-.371-.609.5.5,0,0,1,.609-.371.5.5,0,0,1-.119,1,.3.3,0,0,1-.119-.015m-147.6-.416a.5.5,0,0,1,.3-.655.51.51,0,0,1,.652.284.5.5,0,0,1-.3.652.38.38,0,0,1-.178.046.513.513,0,0,1-.475-.327m172.117-.877a.51.51,0,1,1,.626.34.4.4,0,0,1-.135.031.511.511,0,0,1-.49-.371m-29.386-.178h0a.5.5,0,0,1-.312-.639.512.512,0,1,1,.474.667.3.3,0,0,1-.162-.028m-138.111-.951a.507.507,0,0,1,.221-.685.522.522,0,0,1,.683.238.5.5,0,0,1-.221.67.439.439,0,0,1-.238.059.507.507,0,0,1-.446-.282M405.81,231.6a.494.494,0,0,1,.3-.64l.015-.013a.51.51,0,0,1,.328.966.627.627,0,0,1-.163.028.511.511,0,0,1-.477-.34m-38.909-.624h0a.5.5,0,0,1-.253-.669.518.518,0,0,1,.669-.253.505.505,0,0,1,.253.683.528.528,0,0,1-.462.3.35.35,0,0,1-.207-.059m43.62-1.159a.5.5,0,0,1,.282-.655.479.479,0,0,1,.654.269.5.5,0,0,1-.269.669.436.436,0,0,1-.193.03.517.517,0,0,1-.474-.312m-172.639-.3a.524.524,0,0,1,.162-.713.507.507,0,1,1,.536.862.445.445,0,0,1-.267.089.536.536,0,0,1-.431-.238M362.37,228.7h0a.515.515,0,0,1-.21-.7.522.522,0,0,1,.7-.193.506.506,0,0,1,.193.683.526.526,0,0,1-.446.267.726.726,0,0,1-.238-.059m52.772-.921a.5.5,0,0,1,.238-.67.517.517,0,0,1,.683.239.505.505,0,0,1-.253.669l.013.015a.583.583,0,0,1-.221.045.5.5,0,0,1-.461-.3m-173.071-1.055a.516.516,0,1,1,.715.1.555.555,0,0,1-.3.1.522.522,0,0,1-.417-.207m115.916-.565v-.015a.489.489,0,0,1-.165-.683.478.478,0,0,1,.683-.178.5.5,0,0,1,.18.7.52.52,0,0,1-.432.253.555.555,0,0,1-.266-.074m61.672-.639a.5.5,0,0,1,.207-.683.512.512,0,0,1,.477.906.7.7,0,0,1-.239.059.505.505,0,0,1-.444-.282m-173.545-1.842a.5.5,0,0,1,.074-.715.512.512,0,0,1,.712.076.5.5,0,0,1-.4.832.453.453,0,0,1-.386-.193m107.595-.224v-.013a.5.5,0,0,1-.15-.7.527.527,0,0,1,.715-.15.521.521,0,0,1,.147.7.5.5,0,0,1-.431.236.591.591,0,0,1-.281-.074m70.361-.371a.507.507,0,0,1,.178-.7.51.51,0,1,1,.521.877.609.609,0,0,1-.269.073.5.5,0,0,1-.431-.253M349.5,220.65a.52.52,0,0,1-.134-.715.513.513,0,0,1,.845.581.516.516,0,0,1-.712.134m78.876-.178a.53.53,0,0,1,.163-.715.507.507,0,1,1,.533.862.409.409,0,0,1-.266.091.54.54,0,0,1-.431-.238m-178.359.028a.51.51,0,0,1,.059-.712.531.531,0,0,1,.728.059.5.5,0,0,1-.076.712.435.435,0,0,1-.325.119.521.521,0,0,1-.386-.178m182.592-2.793a.518.518,0,0,1,.119-.712.508.508,0,0,1,.715.134.5.5,0,0,1-.134.7.531.531,0,0,1-.282.091.5.5,0,0,1-.417-.209m-87.285.119a.492.492,0,0,1-.134-.7.5.5,0,1,1,.833.565.48.48,0,0,1-.416.223.536.536,0,0,1-.284-.091m-91.43-.563a.489.489,0,0,1,.059-.713.507.507,0,1,1,.655.773.472.472,0,0,1-.327.119.482.482,0,0,1-.388-.178m87.242-2.229a.505.505,0,1,1,.55-.848.508.508,0,0,1,.149.7.478.478,0,0,1-.417.221.472.472,0,0,1-.281-.073m95.605-.239a.482.482,0,0,1,.1-.7.5.5,0,1,1,.593.816.521.521,0,0,1-.3.091.453.453,0,0,1-.4-.21m-178.968-.756a.5.5,0,0,1,.073-.713.514.514,0,0,1,.715.074.5.5,0,0,1-.074.712.446.446,0,0,1-.328.12.5.5,0,0,1-.385-.193m79.127-1.725a.5.5,0,0,1-.162-.7.507.507,0,1,1,.862.535.523.523,0,0,1-.431.253.441.441,0,0,1-.269-.091m103.88-.533a.508.508,0,0,1,.8-.624.53.53,0,0,1-.088.713h-.015a.465.465,0,0,1-.3.1.5.5,0,0,1-.4-.193m-179.056-.862a.51.51,0,1,1,.712.1.55.55,0,0,1-.3.105.521.521,0,0,1-.416-.208m70.852-1.174a.505.505,0,0,1-.177-.7.491.491,0,0,1,.683-.177.483.483,0,0,1,.193.683.526.526,0,0,1-.446.267.632.632,0,0,1-.254-.074m112.142-1.114a.507.507,0,0,1,.787-.64.515.515,0,0,1-.059.715.589.589,0,0,1-.328.119.5.5,0,0,1-.4-.193m-178.894-.654a.506.506,0,0,1,.132-.713.524.524,0,0,1,.715.149.505.505,0,0,1-.15.7.483.483,0,0,1-.281.091.516.516,0,0,1-.416-.223m62.339-.624a.5.5,0,0,1-.207-.683.512.512,0,0,1,.683-.224.549.549,0,0,1,.221.7.542.542,0,0,1-.459.267.476.476,0,0,1-.239-.059m120.416-1.976a.513.513,0,0,1,.046-.713h.013a.5.5,0,1,1,.655.758.47.47,0,0,1-.327.134.5.5,0,0,1-.388-.178m-178.491-.089a.505.505,0,1,1,.875-.505.512.512,0,0,1-.192.7h.013a.561.561,0,0,1-.253.059.5.5,0,0,1-.444-.253m53.558-.091h0a.506.506,0,0,1,.417-.921.5.5,0,0,1,.253.67.5.5,0,0,1-.67.251m-4.635-1.885a.5.5,0,0,1-.3-.655.521.521,0,0,1,.654-.3.53.53,0,0,1,.3.655.5.5,0,0,1-.477.327.377.377,0,0,1-.178-.03m-44.466-.357a.513.513,0,1,1,.669.253.476.476,0,0,1-.21.045.5.5,0,0,1-.459-.3m39.713-1.2a.512.512,0,0,1,.3-.981.512.512,0,0,1,.343.639.529.529,0,0,1-.49.357.551.551,0,0,1-.149-.015m-35.049-.7a.508.508,0,1,1,.64.328.534.534,0,0,1-.163.03.506.506,0,0,1-.477-.358m30.2-.533a.506.506,0,0,1-.385-.594.508.508,0,0,1,1,.207.511.511,0,0,1-.505.4.3.3,0,0,1-.105-.015m-25.376-.847a.51.51,0,0,1,.4-.609.508.508,0,0,1,.207.994c-.028,0-.073.015-.1.015a.523.523,0,0,1-.507-.4m20.46-.015h0a.516.516,0,0,1-.431-.581.493.493,0,0,1,.565-.431h.013a.508.508,0,0,1-.073,1.012Zm-15.5-.847a.508.508,0,0,1,1.01-.105.527.527,0,0,1-.462.566h-.043a.514.514,0,0,1-.505-.461m10.517.325h.016a.49.49,0,0,1-.475-.533.5.5,0,0,1,.535-.475.513.513,0,0,1,.474.55.5.5,0,0,1-.505.475c-.013,0-.028-.016-.045-.016m-5.5-.652a.489.489,0,0,1,.505-.505.505.505,0,1,1-.505.505" transform="translate(-194.173 -197.977)" fill="#fff"/>
              <path id="Path_144" data-name="Path 144" d="M196.3,221.952a.458.458,0,0,1-.193-.045.422.422,0,0,1-.163-.119.314.314,0,0,1-.105-.163.43.43,0,0,1-.043-.193.545.545,0,0,1,.149-.357.385.385,0,0,1,.163-.1.441.441,0,0,1,.386,0,.312.312,0,0,1,.163.1.481.481,0,0,1,.149.357.39.39,0,0,1-.031.193.324.324,0,0,1-.117.163.422.422,0,0,1-.163.119.411.411,0,0,1-.193.045" transform="translate(-195.799 -186.83)" fill="#fff"/>
            </g>
          </g>
        </g>
        <path id="Path_145" data-name="Path 145" d="M272.4,125.091h0l-3.469-3.738a34.015,34.015,0,0,1-23.124,9.3,29.053,29.053,0,0,1-28.991-23.534l-5.2,1.367-4.754,1.249a38.4,38.4,0,0,0,9.492,18.772c15.08,16.243,41.809,16.243,59.217,0Z" transform="translate(100.473 52.027)" fill="#fff"/>
        <path id="Path_146" data-name="Path 146" d="M259.522,81.654l-4.54,4.237-3.135,2.925a29.553,29.553,0,0,1,7.7,22.448,34.184,34.184,0,0,1-10.908,22.456l2.717,2.925h0l3.922,4.224a45.2,45.2,0,0,0,14.388-29.609,39.162,39.162,0,0,0-10.143-29.609" transform="translate(120.765 39.66)" fill="#263238"/>
        <path id="Path_147" data-name="Path 147" d="M280.06,85.634c-15.08-16.233-41.811-16.233-59.217,0-11.314,10.568-16.564,26.016-13.737,40.445l5.88-1.544h0l4.075-1.07a31.513,31.513,0,0,1-.477-8.22C217.842,97.714,233.076,83.5,250.6,83.5a29.4,29.4,0,0,1,21.78,9.3l4.017-3.748h0Z" transform="translate(100.227 35.68)" fill="#407bff"/>
        <path id="Path_148" data-name="Path 148" d="M289.206,141h0l4.005-3.738a29.586,29.586,0,0,1-7.687-22.456c1.052-14.692,11.92-27.053,25.732-30.678l-1-5.1-.915-4.665A45.865,45.865,0,0,0,289.792,85.2c-17.408,16.245-19.325,42.974-4.245,59.219Z" transform="translate(133.752 36.117)" fill="#fff"/>
        <path id="Path_149" data-name="Path 149" d="M341.44,123.854l-3.933-4.237h0l-2.717-2.925A33.984,33.984,0,0,1,311.677,126a29.432,29.432,0,0,1-21.791-9.3l-3.136,2.925-4.527,4.225a38.926,38.926,0,0,0,28.729,12.264,44.992,44.992,0,0,0,30.488-12.264" transform="translate(137.077 56.678)" fill="#263238"/>
        <path id="Path_150" data-name="Path 150" d="M333.662,144.88c17.4-16.243,19.313-42.974,4.245-59.217-9.812-10.557-24.963-14.7-39.67-10.837l1.132,5.769.784,4a33,33,0,0,1,8.3-1.067,29.156,29.156,0,0,1,29.469,31.744,34.158,34.158,0,0,1-10.907,22.448l3.479,3.747h0Z" transform="translate(144.855 35.653)" fill="#407bff"/>
        <g id="Group_126" data-name="Group 126" transform="translate(516.296 111.472)" opacity="0.3">
          <g id="Group_125" data-name="Group 125">
            <g id="Group_124" data-name="Group 124" clip-path="url(#clip-path-27)">
              <path id="Path_151" data-name="Path 151" d="M379.9,76.343a2.914,2.914,0,0,1,2.951,3.182l-1.836,25.627a3.73,3.73,0,0,1-3.609,3.371H351.779a2.916,2.916,0,0,1-2.952-3.184l1.838-25.625a3.729,3.729,0,0,1,3.609-3.371Zm0-1.312H354.274a5.026,5.026,0,0,0-4.918,4.588l-1.836,25.627a4.225,4.225,0,0,0,4.26,4.588h25.627a5.022,5.022,0,0,0,4.916-4.588l1.838-25.627a4.226,4.226,0,0,0-4.26-4.588" transform="translate(-347.51 -75.03)" fill="#407bff"/>
            </g>
          </g>
        </g>
        <g id="Group_129" data-name="Group 129" transform="translate(513.134 155.57)" opacity="0.3">
          <g id="Group_128" data-name="Group 128">
            <g id="Group_127" data-name="Group 127" clip-path="url(#clip-path-28)">
              <path id="Path_152" data-name="Path 152" d="M377.774,106.021a2.916,2.916,0,0,1,2.951,3.184l-1.836,25.627a3.73,3.73,0,0,1-3.609,3.371H349.652a2.916,2.916,0,0,1-2.951-3.184l1.836-25.627a3.731,3.731,0,0,1,3.609-3.371Zm0-1.31H352.147a5.023,5.023,0,0,0-4.916,4.588l-1.838,25.627a4.225,4.225,0,0,0,4.26,4.588h25.627a5.022,5.022,0,0,0,4.916-4.588l1.838-25.627a4.226,4.226,0,0,0-4.26-4.588" transform="translate(-345.381 -104.711)" fill="#407bff"/>
            </g>
          </g>
        </g>
        <path id="Path_153" data-name="Path 153" d="M343.364,201.466a2.435,2.435,0,0,1,2.48,2.674A3.127,3.127,0,0,1,342.778,207a2.468,2.468,0,0,1-1.835-.774,2.494,2.494,0,0,1-.645-1.9,3.128,3.128,0,0,1,3.065-2.861m0-1.312a4.454,4.454,0,0,0-4.372,4.08,3.747,3.747,0,0,0,3.787,4.08,4.452,4.452,0,0,0,4.372-4.08,3.746,3.746,0,0,0-3.787-4.08" transform="translate(164.645 97.216)" fill="#407bff"/>
        <path id="Path_154" data-name="Path 154" d="M342.364,200.612l-.652-.046.094-1.307.654.046Z" transform="translate(165.971 96.78)" fill="#407bff"/>
        <path id="Path_155" data-name="Path 155" d="M342.556,215.917l-.652-.046.193-2.683.652.048Zm.385-5.365-.654-.046.193-2.685.654.046Zm.385-5.366-.654-.048.193-2.682.654.046Zm.385-5.366-.654-.046.193-2.685.652.048Zm.383-5.366-.652-.046.193-2.683.652.046Zm.386-5.365-.652-.048.192-2.683.652.046Zm.385-5.368-.654-.046.192-2.683.654.048Zm.385-5.365-.654-.046.192-2.685.654.046Zm.383-5.366-.652-.048.193-2.682.652.046Zm.385-5.366-.652-.046.193-2.685.652.048Zm.385-5.366-.652-.046.192-2.683.654.046Z" transform="translate(166.064 77.483)" fill="#407bff"/>
        <rect id="Rectangle_92" data-name="Rectangle 92" width="1.311" height="0.654" transform="translate(512.2 234.328) rotate(-85.962)" fill="#407bff"/>
        <path id="Path_156" data-name="Path 156" d="M442.108,165.875H206.852a4.625,4.625,0,0,1-4.653-5.013l1.16-16.2a5.366,5.366,0,0,1,5.262-4.912h235.26a4.625,4.625,0,0,1,4.653,5.013l-1.162,16.2a5.369,5.369,0,0,1-5.264,4.912m-233.487-24.7a3.924,3.924,0,0,0-3.846,3.591l-1.16,16.2a3.205,3.205,0,0,0,3.237,3.49H442.108a3.926,3.926,0,0,0,3.848-3.591l1.16-16.2a3.206,3.206,0,0,0-3.236-3.49Z" transform="translate(98.202 67.88)" fill="#407bff"/>
        <g id="Group_132" data-name="Group 132" transform="translate(310.199 213.67)" opacity="0.8">
          <g id="Group_131" data-name="Group 131">
            <g id="Group_130" data-name="Group 130" clip-path="url(#clip-path-29)">
              <path id="Path_157" data-name="Path 157" d="M433.85,148.225H210.84a2.029,2.029,0,0,1-2.046-2.2,2.415,2.415,0,0,1,2.362-2.2h223.01a2.031,2.031,0,0,1,2.046,2.2,2.413,2.413,0,0,1-2.362,2.2" transform="translate(-208.789 -143.817)" fill="#fff" fill-rule="evenodd"/>
            </g>
          </g>
        </g>
        <g id="Group_135" data-name="Group 135" transform="translate(309.532 222.963)" opacity="0.8">
          <g id="Group_134" data-name="Group 134">
            <g id="Group_133" data-name="Group 133" clip-path="url(#clip-path-30)">
              <path id="Path_158" data-name="Path 158" d="M396.9,154.48H210.392a2.031,2.031,0,0,1-2.046-2.2,2.415,2.415,0,0,1,2.362-2.2H397.219a2.031,2.031,0,0,1,2.046,2.2,2.415,2.415,0,0,1-2.362,2.2" transform="translate(-208.34 -150.072)" fill="#fff" fill-rule="evenodd"/>
            </g>
          </g>
        </g>
      </g>
    </g>
  </g>
</svg>
