<?xml version="1.0" encoding="UTF-8"?>
<svg width="215px" height="35px" viewBox="0 0 215 35" version="1.1" xmlns="http://www.w3.org/2000/svg" xmlns:xlink="http://www.w3.org/1999/xlink">
    <title>39B26A21-946C-4F0A-BF36-AE54CF24DE33</title>
    <g id="Page-1" stroke="none" stroke-width="1" fill="none" fill-rule="evenodd">
        <g id="SEAC_Home_DESKTOP" transform="translate(-240.000000, -60.000000)" fill="#FFFFFF" fill-rule="nonzero">
            <g id="LOGO" transform="translate(240.000000, 60.000000)">
                <path d="M8.46429152,25.8785785 C10.0032536,25.8785785 11.3498455,25.6309641 12.504067,25.1357354 C13.6582886,24.6405067 14.5443577,23.9552484 15.1622743,23.0799605 C15.7801909,22.2046726 16.0891492,21.2142152 16.0891492,20.1085884 C16.0658316,18.8417243 15.7218969,17.8224745 15.057345,17.0508391 C14.3927932,16.2792037 13.605824,15.7091148 12.6964373,15.3405726 C11.7870506,14.9720303 10.632829,14.6150049 9.23377257,14.2694965 C7.85803373,13.9239882 6.8437178,13.5842382 6.19082479,13.2502468 C5.53793178,12.9162553 5.21148528,12.4267851 5.21148528,11.7818361 C5.21148528,11.2059888 5.45049075,10.7568279 5.92850171,10.4343534 C6.40651266,10.1118789 7.08855268,9.95064166 7.97462177,9.95064166 C8.93064367,9.95064166 9.69429532,10.1752221 10.2655767,10.624383 C10.8368581,11.0735439 11.1574752,11.6781836 11.227428,12.4383021 L11.227428,12.4383021 L15.9142671,12.4383021 C15.7743615,10.5034551 15.0165392,8.96594274 13.6408004,7.82576505 C12.2650615,6.68558736 10.4229706,6.11549852 8.11452741,6.11549852 C6.55224771,6.11549852 5.19399707,6.36887134 4.0397755,6.87561698 C2.88555393,7.38236262 1.99948484,8.0733794 1.38156824,8.94866732 C0.763651646,9.82395525 0.454693346,10.7913787 0.454693346,11.8509378 C0.454693346,13.1408358 0.786969253,14.165844 1.45152107,14.9259625 C2.11607288,15.6860809 2.90887154,16.2504113 3.82991703,16.6189536 C4.75096253,16.9874959 5.93433111,17.3445212 7.38002278,17.6900296 C8.77907923,18.0585719 9.79922455,18.3983218 10.4404588,18.7092794 C11.081693,19.0202369 11.4023101,19.4866732 11.4023101,20.1085884 C11.4023101,20.6844357 11.139987,21.1566305 10.6153408,21.5251728 C10.0906946,21.893715 9.36201941,22.0779862 8.42931511,22.0779862 C7.47329321,22.0779862 6.67466515,21.8361303 6.03343094,21.3524186 C5.39219674,20.8687068 5.02494442,20.2583087 4.93167399,19.5212241 L4.93167399,19.5212241 L0,19.5212241 C0.0699528225,20.6959526 0.472181552,21.7670286 1.20668619,22.7344521 C1.94119082,23.7018756 2.93801855,24.4677526 4.19716935,25.0320829 C5.45632016,25.5964133 6.87869421,25.8785785 8.46429152,25.8785785 Z M28.575728,25.8785785 C30.8841711,25.8785785 32.8311914,25.2854557 34.4167887,24.0992103 C36.002386,22.9129648 37.0749959,21.3984863 37.6346185,19.5557749 L37.6346185,19.5557749 L32.3531804,19.5557749 C31.5836994,21.0990457 30.2895721,21.8706811 28.4707988,21.8706811 C27.211648,21.8706811 26.1506968,21.479105 25.2879453,20.6959526 C24.4251939,19.9128003 23.9355241,18.8302073 23.8189361,17.4481737 L23.8189361,17.4481737 L37.9843826,17.4481737 C38.0776531,16.8953603 38.1242883,16.2734452 38.1242883,15.5824284 C38.1242883,13.7166831 37.7220595,12.0640013 36.9176021,10.624383 C36.1131446,9.18476473 34.9822407,8.0733794 33.5248902,7.29022705 C32.0675397,6.5070747 30.417819,6.11549852 28.575728,6.11549852 C26.6636842,6.11549852 24.9731576,6.51859164 23.5041484,7.32477789 C22.0351391,8.13096413 20.8925763,9.28265877 20.0764601,10.7798618 C19.2603438,12.2770648 18.8522857,14.0161237 18.8522857,15.9970385 C18.8522857,17.9549194 19.2661732,19.6824613 20.0939483,21.1796644 C20.9217233,22.6768674 22.0759449,23.8343205 23.556613,24.6520237 C25.0372811,25.4697269 26.7103194,25.8785785 28.575728,25.8785785 Z M33.0527086,14.2003949 L23.8539125,14.2003949 C24.0404533,12.9104969 24.5476113,11.9027641 25.3753864,11.1771964 C26.2031614,10.4516288 27.2233068,10.088845 28.4358224,10.088845 C29.7182908,10.088845 30.8025595,10.4631458 31.6886286,11.2117473 C32.5746977,11.9603488 33.029391,12.9565647 33.0527086,14.2003949 L33.0527086,14.2003949 Z M49.2467871,25.8785785 C50.6924787,25.8785785 51.9691177,25.5848963 53.0767041,24.9975321 C54.1842904,24.4101678 55.0528713,23.6673248 55.6824467,22.769003 L55.6824467,22.769003 L55.6824467,25.5676209 L60.6141207,25.5676209 L60.6141207,6.42645607 L55.6824467,6.42645607 L55.6824467,9.15597236 C55.0295537,8.28068444 54.1609728,7.55511681 53.0767041,6.9792695 C51.9924353,6.40342218 50.7274551,6.11549852 49.2817635,6.11549852 C47.6262133,6.11549852 46.128057,6.51859164 44.7872946,7.32477789 C43.4465322,8.13096413 42.385581,9.28265877 41.6044412,10.7798618 C40.8233013,12.2770648 40.4327314,13.9930898 40.4327314,15.9279368 C40.4327314,17.8858177 40.8233013,19.6191181 41.6044412,21.1278381 C42.385581,22.6365581 43.4465322,23.8055281 44.7872946,24.6347483 C46.128057,25.4639684 47.6145545,25.8785785 49.2467871,25.8785785 Z M50.5409143,21.6288253 C49.6548452,21.6288253 48.8212407,21.3984863 48.0401009,20.9378085 C47.258961,20.4771306 46.6293856,19.8149062 46.1513747,18.9511352 C45.6733637,18.0873643 45.4343582,17.0796315 45.4343582,15.9279368 C45.4343582,14.7762422 45.6733637,13.7800263 46.1513747,12.9392892 C46.6293856,12.0985522 47.2531316,11.4593616 48.0226127,11.0217177 C48.7920937,10.5840737 49.6315276,10.3652517 50.5409143,10.3652517 C51.450301,10.3652517 52.3013936,10.5898322 53.0941923,11.0389931 C53.8869909,11.488154 54.5165663,12.133103 54.9829185,12.9738401 C55.4492706,13.8145772 55.6824467,14.82231 55.6824467,15.9970385 C55.6824467,17.171767 55.4492706,18.1794998 54.9829185,19.0202369 C54.5165663,19.860974 53.8869909,20.505923 53.0941923,20.9550839 C52.3013936,21.4042448 51.450301,21.6288253 50.5409143,21.6288253 Z M73.7302749,25.8785785 C76.1086709,25.8785785 78.0906675,25.2681803 79.6762648,24.047384 C81.2618622,22.8265877 82.3228133,21.1796644 82.8591183,19.106614 L82.8591183,19.106614 L77.5776802,19.106614 C76.9714224,20.8571899 75.6772952,21.7324778 73.6952985,21.7324778 C72.2962421,21.7324778 71.1886557,21.2314906 70.3725395,20.2295163 C69.5564232,19.227542 69.1483651,17.816716 69.1483651,15.9970385 C69.1483651,14.1543271 69.5564232,12.7319842 70.3725395,11.7300099 C71.1886557,10.7280355 72.2962421,10.2270484 73.6952985,10.2270484 C74.674638,10.2270484 75.4965837,10.4631458 76.1611355,10.9353406 C76.8256873,11.4075354 77.2978689,12.0582428 77.5776802,12.887463 L77.5776802,12.887463 L82.8591183,12.887463 C82.3228133,10.745311 81.2676916,9.08111221 79.6937531,7.89486673 C78.1198145,6.70862126 76.1319885,6.11549852 73.7302749,6.11549852 C71.8648663,6.11549852 70.2093162,6.52435012 68.7636245,7.34205331 C67.3179329,8.1597565 66.1870289,9.31145114 65.3709126,10.7971372 C64.5547964,12.2828233 64.1467382,14.0161237 64.1467382,15.9970385 C64.1467382,17.9779533 64.5547964,19.7112537 65.3709126,21.1969398 C66.1870289,22.6826259 67.3179329,23.8343205 68.7636245,24.6520237 C70.2093162,25.4697269 71.8648663,25.8785785 73.7302749,25.8785785 Z M91.3583862,25.5676209 L91.3583862,14.9950642 C91.3583862,13.4748272 91.7489561,12.3058572 92.530096,11.488154 C93.3112358,10.6704508 94.3780164,10.2615992 95.7304376,10.2615992 C97.0595412,10.2615992 98.1088336,10.6704508 98.8783146,11.488154 C99.6477957,12.3058572 100.032536,13.4748272 100.032536,14.9950642 L100.032536,14.9950642 L100.032536,25.5676209 L104.929234,25.5676209 L104.929234,14.3385982 C104.929234,12.6110563 104.608617,11.1311287 103.967382,9.8988154 C103.326148,8.66650214 102.43425,7.73362948 101.291687,7.10019743 C100.149124,6.46676538 98.8433382,6.15004936 97.3743289,6.15004936 C96.0918605,6.15004936 94.9259802,6.38614676 93.8766878,6.85834156 C92.8273955,7.33053636 91.9879616,7.98124383 91.3583862,8.81046397 L91.3583862,8.81046397 L91.3583862,0 L86.4616886,0 L86.4616886,25.5676209 L91.3583862,25.5676209 Z M117.136001,25.8785785 C118.581693,25.8785785 119.858332,25.5848963 120.965918,24.9975321 C122.073505,24.4101678 122.942086,23.6673248 123.571661,22.769003 L123.571661,22.769003 L123.571661,25.5676209 L128.503335,25.5676209 L128.503335,6.42645607 L123.571661,6.42645607 L123.571661,9.15597236 C122.918768,8.28068444 122.050187,7.55511681 120.965918,6.9792695 C119.88165,6.40342218 118.616669,6.11549852 117.170978,6.11549852 C115.515428,6.11549852 114.017271,6.51859164 112.676509,7.32477789 C111.335746,8.13096413 110.274795,9.28265877 109.493655,10.7798618 C108.712516,12.2770648 108.321946,13.9930898 108.321946,15.9279368 C108.321946,17.8858177 108.712516,19.6191181 109.493655,21.1278381 C110.274795,22.6365581 111.335746,23.8055281 112.676509,24.6347483 C114.017271,25.4639684 115.503769,25.8785785 117.136001,25.8785785 Z M118.430129,21.6288253 C117.544059,21.6288253 116.710455,21.3984863 115.929315,20.9378085 C115.148175,20.4771306 114.5186,19.8149062 114.040589,18.9511352 C113.562578,18.0873643 113.323572,17.0796315 113.323572,15.9279368 C113.323572,14.7762422 113.562578,13.7800263 114.040589,12.9392892 C114.5186,12.0985522 115.142346,11.4593616 115.911827,11.0217177 C116.681308,10.5840737 117.520742,10.3652517 118.430129,10.3652517 C119.339515,10.3652517 120.190608,10.5898322 120.983407,11.0389931 C121.776205,11.488154 122.405781,12.133103 122.872133,12.9738401 C123.338485,13.8145772 123.571661,14.82231 123.571661,15.9970385 C123.571661,17.171767 123.338485,18.1794998 122.872133,19.0202369 C122.405781,19.860974 121.776205,20.505923 120.983407,20.9550839 C120.190608,21.4042448 119.339515,21.6288253 118.430129,21.6288253 Z M138.191801,25.5676209 L138.191801,14.9950642 C138.191801,13.4748272 138.582371,12.3058572 139.363511,11.488154 C140.144651,10.6704508 141.211431,10.2615992 142.563852,10.2615992 C143.892956,10.2615992 144.942248,10.6704508 145.711729,11.488154 C146.48121,12.3058572 146.865951,13.4748272 146.865951,14.9950642 L146.865951,14.9950642 L146.865951,25.5676209 L151.762648,25.5676209 L151.762648,14.3385982 C151.762648,11.7588022 151.051461,9.7490951 149.629087,8.3094768 C148.206713,6.86985851 146.341305,6.15004936 144.032862,6.15004936 C142.820346,6.15004936 141.70693,6.38614676 140.692614,6.85834156 C139.678298,7.33053636 138.844694,7.98124383 138.191801,8.81046397 L138.191801,8.81046397 L138.191801,6.42645607 L133.295103,6.42645607 L133.295103,25.5676209 L138.191801,25.5676209 Z M165.753213,35 C167.805162,35 169.553983,34.5911484 170.999675,33.7734452 C172.445366,32.955742 173.529635,31.8501152 174.252481,30.4565647 C174.975327,29.0630141 175.33675,27.479434 175.33675,25.7058243 L175.33675,25.7058243 L175.33675,6.42645607 L170.405076,6.42645607 L170.405076,9.15597236 C169.7755,8.25765054 168.912749,7.52632445 167.816821,6.96199408 C166.720894,6.39766371 165.450084,6.11549852 164.004392,6.11549852 C162.348842,6.11549852 160.850686,6.51859164 159.509924,7.32477789 C158.169161,8.13096413 157.10821,9.28265877 156.32707,10.7798618 C155.54593,12.2770648 155.15536,13.9930898 155.15536,15.9279368 C155.15536,17.8858177 155.54593,19.6191181 156.32707,21.1278381 C157.10821,22.6365581 158.174991,23.8055281 159.527412,24.6347483 C160.879833,25.4639684 162.37216,25.8785785 164.004392,25.8785785 C165.426766,25.8785785 166.691747,25.5791379 167.799333,24.9802567 C168.906919,24.3813755 169.7755,23.6327739 170.405076,22.7344521 L170.405076,22.7344521 L170.405076,25.7058243 C170.405076,27.4103323 169.962041,28.6829549 169.075972,29.523692 C168.189903,30.3644291 167.035681,30.7847976 165.613307,30.7847976 C164.400792,30.7847976 163.368988,30.5256663 162.517895,30.0074038 C161.666802,29.4891412 161.113009,28.7923659 160.856515,27.917078 L160.856515,27.917078 L155.994794,27.917078 C156.22797,30.1052978 157.224798,31.8328397 158.985277,33.0997038 C160.745757,34.3665679 163.001735,35 165.753213,35 Z M165.263543,21.6288253 C164.377474,21.6288253 163.54387,21.3984863 162.76273,20.9378085 C161.98159,20.4771306 161.352015,19.8149062 160.874004,18.9511352 C160.395993,18.0873643 160.156987,17.0796315 160.156987,15.9279368 C160.156987,14.7762422 160.395993,13.7800263 160.874004,12.9392892 C161.352015,12.0985522 161.975761,11.4593616 162.745242,11.0217177 C163.514723,10.5840737 164.354156,10.3652517 165.263543,10.3652517 C166.17293,10.3652517 167.024023,10.5898322 167.816821,11.0389931 C168.60962,11.488154 169.239195,12.133103 169.705547,12.9738401 C170.1719,13.8145772 170.405076,14.82231 170.405076,15.9970385 C170.405076,17.171767 170.1719,18.1794998 169.705547,19.0202369 C169.239195,19.860974 168.60962,20.505923 167.816821,20.9550839 C167.024023,21.4042448 166.17293,21.6288253 165.263543,21.6288253 Z M188.59281,25.8785785 C190.901253,25.8785785 192.848273,25.2854557 194.43387,24.0992103 C196.019467,22.9129648 197.092077,21.3984863 197.6517,19.5557749 L197.6517,19.5557749 L192.370262,19.5557749 C191.600781,21.0990457 190.306654,21.8706811 188.48788,21.8706811 C187.228729,21.8706811 186.167778,21.479105 185.305027,20.6959526 C184.442275,19.9128003 183.952606,18.8302073 183.836018,17.4481737 L183.836018,17.4481737 L198.001464,17.4481737 C198.094735,16.8953603 198.14137,16.2734452 198.14137,15.5824284 C198.14137,13.7166831 197.739141,12.0640013 196.934684,10.624383 C196.130226,9.18476473 194.999322,8.0733794 193.541972,7.29022705 C192.084621,6.5070747 190.4349,6.11549852 188.59281,6.11549852 C186.680766,6.11549852 184.990239,6.51859164 183.52123,7.32477789 C182.052221,8.13096413 180.909658,9.28265877 180.093542,10.7798618 C179.277425,12.2770648 178.869367,14.0161237 178.869367,15.9970385 C178.869367,17.9549194 179.283255,19.6824613 180.11103,21.1796644 C180.938805,22.6768674 182.093026,23.8343205 183.573694,24.6520237 C185.054363,25.4697269 186.727401,25.8785785 188.59281,25.8785785 Z M193.06979,14.2003949 L183.870994,14.2003949 C184.057535,12.9104969 184.564693,11.9027641 185.392468,11.1771964 C186.220243,10.4516288 187.240388,10.088845 188.452904,10.088845 C189.735372,10.088845 190.819641,10.4631458 191.70571,11.2117473 C192.591779,11.9603488 193.046473,12.9565647 193.06979,14.2003949 L193.06979,14.2003949 Z M208.109647,14.9605133 C209.438751,14.9605133 210.622119,14.6610727 211.659753,14.0621915 C212.697386,13.4633103 213.513503,12.6398486 214.108102,11.5918065 C214.702701,10.5437644 215,9.36327739 215,8.05034551 C215,6.73741362 214.702701,5.55116815 214.108102,4.49160908 C213.513503,3.43205002 212.697386,2.60282988 211.659753,2.00394867 C210.622119,1.40506746 209.438751,1.10562685 208.109647,1.10562685 C206.780543,1.10562685 205.591345,1.40506746 204.542053,2.00394867 C203.492761,2.60282988 202.670815,3.43205002 202.076216,4.49160908 C201.481617,5.55116815 201.184318,6.73741362 201.184318,8.05034551 C201.184318,9.36327739 201.481617,10.5437644 202.076216,11.5918065 C202.670815,12.6398486 203.492761,13.4633103 204.542053,14.0621915 C205.591345,14.6610727 206.780543,14.9605133 208.109647,14.9605133 Z M208.109647,13.8203356 C206.407462,13.8203356 205.037552,13.2790392 203.999919,12.1964462 C202.962285,11.1138532 202.443468,9.73181968 202.443468,8.05034551 C202.443468,6.36887134 202.962285,4.98683778 203.999919,3.90424482 C205.037552,2.82165186 206.407462,2.28035538 208.109647,2.28035538 C209.788515,2.28035538 211.146765,2.82165186 212.184399,3.90424482 C213.222032,4.98683778 213.740849,6.36887134 213.740849,8.05034551 C213.740849,9.73181968 213.222032,11.1138532 212.184399,12.1964462 C211.146765,13.2790392 209.788515,13.8203356 208.109647,13.8203356 Z M206.885473,11.7127345 L206.885473,8.77591313 L207.68993,8.77591313 L209.613633,11.7127345 L211.39743,11.6781836 L209.298845,8.70681145 C209.881785,8.59164199 210.336478,8.34402764 210.662925,7.96396841 C210.989372,7.58390918 211.152595,7.10595591 211.152595,6.53010859 C211.152595,5.83909181 210.925248,5.29203685 210.470555,4.88894373 C210.015861,4.48585061 209.403774,4.28430405 208.634293,4.28430405 L208.634293,4.28430405 L205.381487,4.28430405 L205.381487,11.7127345 L206.885473,11.7127345 Z M208.529364,7.53208292 L206.885473,7.53208292 L206.885473,5.63178677 L208.529364,5.63178677 C208.85581,5.63178677 209.123963,5.70664692 209.333821,5.85636723 C209.54368,6.00608753 209.648609,6.24218493 209.648609,6.56465943 C209.648609,6.88713393 209.54368,7.1289898 209.333821,7.29022705 C209.123963,7.4514643 208.85581,7.53208292 208.529364,7.53208292 L208.529364,7.53208292 Z" id="seachange®"></path>
            </g>
        </g>
    </g>
</svg>